Coordinates
version=1
nRows=17
nColumns=34
inDegrees=yes

Units are S.I. units (second, meters, Newtons, ...)
If the header above contains a line with 'inDegrees', this indicates whether rotational values are in degrees (yes) or radians (no).

endheader
time	pelvis_tilt	pelvis_list	pelvis_rotation	pelvis_tx	pelvis_ty	pelvis_tz	hip_flexion_r	hip_adduction_r	hip_rotation_r	knee_angle_r	ankle_angle_r	subtalar_angle_r	mtp_angle_r	hip_flexion_l	hip_adduction_l	hip_rotation_l	knee_angle_l	ankle_angle_l	subtalar_angle_l	mtp_angle_l	lumbar_extension	lumbar_bending	lumbar_rotation	arm_flex_r	arm_add_r	arm_rot_r	elbow_flex_r	pro_sup_r	arm_flex_l	arm_add_l	arm_rot_l	elbow_flex_l	pro_sup_l
      0.00000000	     -1.53159973	     -4.42807860	   -175.22468142	      0.19187252	      1.06666417	      0.15624765	     20.34028583	     -6.32301111	     -1.28653991	     13.08578620	     -7.27047664	     -2.86296114	      0.00000000	     -3.28065191	      7.98675892	     -3.55126598	     11.53777006	      8.37209043	    -12.49620664	      0.00000000	    -19.62241372	     -2.94389708	     -7.54494623	      7.58650538	     -3.76663559	      5.86084633	     29.11462360	     80.31643111	      8.72851176	    -11.00414008	     11.76244945	     39.54959349	     80.99796185
      0.00833330	      0.53116045	     -4.39598502	   -175.43454753	      0.18997166	      1.06225966	      0.15683859	     21.88156825	     -6.14548708	      1.46749116	     10.75490780	    -10.69485609	     -3.01225624	      0.00000000	     -2.72413876	      8.12774310	     -3.90247712	      9.11735774	      6.17048433	    -11.18792072	      0.00000000	    -15.65796223	     -3.76996276	     -6.67891756	      6.25868753	     -3.22138265	      4.24722004	     29.04082580	     80.58714592	      7.41035421	    -10.15263873	     10.51217058	     39.55878811	     80.91399117
      0.01666670	      2.11864759	     -4.57340975	   -175.68706649	      0.18882764	      1.06051989	      0.15720011	     23.33019536	     -6.84692462	      1.54678568	      9.91308901	    -12.96656606	     -1.97012437	      0.00000000	     -1.88330456	      8.44464097	     -4.36413480	      8.06870946	      5.30856884	    -10.50850969	      0.00000000	    -13.59456056	     -4.26329194	     -6.74602579	      5.66172038	     -2.30154829	      0.06508563	     29.33952737	     81.76836715	      6.50514285	     -9.00829333	      6.41485233	     39.75640405	     81.46414676
      0.02500000	      2.67667231	     -4.20939937	   -175.88366422	      0.18802559	      1.05928944	      0.15689429	     23.37436871	     -6.55922025	      1.53893967	      8.84033827	    -13.89788601	     -1.35255915	      0.00000000	     -1.66684305	      8.13642383	     -4.48890989	      7.40816175	      4.48003307	     -9.99289738	      0.00000000	    -12.62200084	     -3.98337540	     -6.39487280	      5.28210457	     -2.27253154	     -0.17770765	     29.17706896	     81.89760431	      6.26180373	     -8.78742634	      6.17341401	     40.09254804	     81.56001578
      0.03333330	      4.21143041	     -3.86878533	   -176.01454606	      0.18755094	      1.05720658	      0.15631640	     25.03107522	     -6.26895917	      1.60518577	      9.34654959	    -14.10047151	     -1.74714814	      0.00000000	     -0.16968811	      7.86956812	     -5.10787484	      7.45694580	      4.76911032	     -9.57490699	      0.00000000	    -10.74162860	     -3.84482843	     -6.65653784	      4.99340599	     -1.27831871	     -4.99277263	     29.13646767	     85.30153766	      4.91697242	     -7.65392904	      1.35744270	     41.64543472	     84.33287802
      0.04166670	      4.99600068	     -3.58231062	   -176.28649562	      0.18732470	      1.05616253	      0.15563895	     25.96254738	     -5.81495870	      1.98050880	     10.00947180	    -13.43441923	     -1.57377763	      0.00000000	      0.55174719	      7.61946686	     -5.67218728	      7.47038733	      4.69535843	     -9.70529036	      0.00000000	     -9.78326824	     -3.81035002	     -6.21690591	      4.54945286	     -1.39217960	     -4.94234613	     29.19898971	     85.98387920	      4.79851361	     -7.59528023	      1.53321516	     42.13839960	     84.90670775
      0.05000000	      5.72394266	     -3.44024968	   -176.33108496	      0.18762600	      1.05524545	      0.15483838	     26.89182627	     -5.61197417	      2.18166545	     10.89538704	    -12.90701075	     -1.91848470	      0.00000000	      1.29495276	      7.46988410	     -6.14031966	      7.77437392	      4.96966217	     -9.75328606	      0.00000000	     -8.93420991	     -3.82089389	     -6.29783169	      4.30949340	     -1.32309796	     -5.23303630	     29.50265181	     86.86772661	      4.61298264	     -7.65877369	      1.55213630	     42.63381253	     85.71269647
      0.05833330	      5.84850923	     -3.22452873	   -176.31269537	      0.18790254	      1.05542921	      0.15423355	     27.03857722	     -5.31620010	      2.20583968	     11.48811248	    -12.41971563	     -2.12658084	      0.00000000	      1.33300549	      7.20893704	     -6.49335489	      7.97270318	      5.05321907	     -9.92996624	      0.00000000	     -8.91228005	     -3.66793344	     -6.40606984	      4.28422348	     -1.34784638	     -5.28508239	     29.51519546	     86.98640544	      4.77031559	     -7.57508900	      1.57142740	     42.77614768	     85.83226538
      0.06666670	      5.92451414	     -3.13727886	   -176.22391690	      0.18824952	      1.05580135	      0.15363493	     27.02508821	     -5.18417662	      2.28894291	     11.85124766	    -12.33598163	     -2.12592164	      0.00000000	      1.25430127	      7.09044978	     -6.65045099	      8.05754149	      5.10257795	    -10.01115287	      0.00000000	     -8.79865168	     -3.71739222	     -6.59217180	      4.19700965	     -1.37683113	     -5.30022714	     29.50722202	     87.00827393	      4.97807972	     -7.50575022	      1.59099843	     42.88417016	     85.85930184
      0.07500000	      6.87850790	     -3.22156726	   -176.25355307	      0.18839860	      1.05499333	      0.15287820	     28.25704556	     -5.18499153	      2.52806935	     12.70338017	    -11.37653786	     -2.12321051	      0.00000000	      2.34138858	      7.13135195	     -7.43106209	      8.61833557	      5.46974039	     -9.82048620	      0.00000000	     -7.86588628	     -3.88595426	     -6.56767638	      3.75187533	     -1.32158078	     -5.56872492	     29.97208209	     87.91119760	      4.74080991	     -7.71855966	      1.98279801	     43.75183972	     86.97316583
      0.08333330	      6.95864591	     -3.18970807	   -176.22189209	      0.18826045	      1.05576055	      0.15257783	     28.21719212	     -5.08517363	      2.56047423	     12.87523793	    -11.31945160	     -2.13194007	      0.00000000	      2.24661972	      7.06529567	     -7.53065330	      8.70308069	      5.47827817	     -9.86609817	      0.00000000	     -7.79100194	     -3.91082291	     -6.74159101	      3.67648669	     -1.30602148	     -5.57381512	     29.95722050	     87.93192997	      4.92759941	     -7.63830319	      2.00558222	     43.82017878	     87.00206401
      0.09166670	      7.06787370	     -3.17740399	   -176.16557771	      0.18812182	      1.05630420	      0.15234733	     28.17579681	     -5.03358132	      2.59547158	     13.02042723	    -11.17606692	     -2.16995217	      0.00000000	      2.21153517	      7.00618980	     -7.70383604	      8.84076643	      5.46164429	     -9.92572166	      0.00000000	     -7.73335250	     -3.87561747	     -6.94293808	      3.57819156	     -1.26331580	     -5.57266469	     29.93757099	     87.95923910	      5.16109512	     -7.55225484	      2.03972831	     43.90729336	     87.04328814
      0.10000000	      7.32524032	     -3.15664346	   -176.07212157	      0.18830537	      1.05627109	      0.15209480	     28.29669887	     -5.00327133	      2.59422848	     13.15217724	    -10.67114438	     -2.28561030	      0.00000000	      2.47145675	      6.91549343	     -7.99239395	      9.24612223	      5.34815425	     -9.93993659	      0.00000000	     -7.74529538	     -3.79362438	     -7.12194144	      3.58478335	     -1.20337610	     -5.58266562	     29.99898172	     88.09183656	      5.38775906	     -7.52028094	      2.17779947	     44.01137401	     87.25652276
      0.10833330	      7.46206310	     -3.19104855	   -176.16197853	      0.18799650	      1.05684346	      0.15178936	     28.25550165	     -4.96314747	      2.60188131	     13.15920698	    -10.64750789	     -2.27276602	      0.00000000	      2.41052422	      6.92080101	     -8.02660351	      9.29782755	      5.33855654	     -9.94312319	      0.00000000	     -7.65536038	     -3.79385252	     -7.28335374	      3.52234063	     -1.21227305	     -5.58739070	     29.98954810	     88.10732569	      5.57590261	     -7.44697177	      2.20952269	     44.09292185	     87.28534322
      0.11666670	      7.62390061	     -3.22797935	   -176.21721041	      0.18793481	      1.05715534	      0.15136058	     28.20743089	     -4.94832943	      2.62642311	     13.10671736	    -10.59992814	     -2.25303916	      0.00000000	      2.39467111	      6.92115615	     -8.10366960	      9.38414657	      5.29014338	     -9.94804230	      0.00000000	     -7.54907328	     -3.77595453	     -7.47759541	      3.46226370	     -1.19578381	     -5.58538918	     29.98304670	     88.12836274	      5.84228087	     -7.33884832	      2.25690059	     44.21614484	     87.32508705
      0.12500000	      8.67690014	     -3.27625361	   -176.02944424	      0.18800632	      1.05634387	      0.15118083	     29.15310621	     -5.11124799	      2.36733161	     13.15426603	    -10.16363275	     -1.63786104	      0.00000000	      3.55020390	      6.95152252	     -8.22326679	      9.89954157	      5.13718459	    -10.01843550	      0.00000000	     -6.48542028	     -3.88197349	     -7.46708389	      3.02181132	     -1.22653702	     -5.60006796	     30.27535132	     89.05916638	      5.83428232	     -7.53030489	      3.51039855	     45.17617858	     89.06497727
      0.13333330	      8.80808564	     -3.32722140	   -176.16817135	      0.18791535	      1.05700881	      0.15070171	     29.09266337	     -5.07033464	      2.37097408	     13.12848274	    -10.13979203	     -1.64684347	      0.00000000	      3.50318911	      6.96289213	     -8.22800941	      9.98925297	      5.08916082	    -10.00903845	      0.00000000	     -6.45751840	     -3.85472719	     -7.59469551	      2.98051377	     -1.22527859	     -5.60311896	     30.25988614	     89.07216974	      6.00987411	     -7.48089415	      3.51981164	     45.23338876	     89.08947477
